<svg xmlns="http://www.w3.org/2000/svg" viewBox="0 0 16.05 16.44"><g data-name="Layer 2"><g data-name="Layer 1"><path fill="none" d="M0 0h16.05v16.44H0z"/><path d="M12.53 13.33A1.53 1.53 0 1014 14.86a1.52 1.52 0 00-1.47-1.53zM0 .88a.81.81 0 00.8.82h.61a.31.31 0 01.27.17l2.8 6-1.12 2a2.91 2.91 0 00-.16.82 1.61 1.61 0 001.6 1.63h8.79a.8.8 0 00.8-.81.82.82 0 00-.23-.58.78.78 0 00-.57-.24H5.15a.17.17 0 01-.15-.17v-.09l.68-1.38h5.91A1.46 1.46 0 0013 8.23l2.9-5.31a.45.45 0 00.12-.4.77.77 0 00-.71-.82H3.39L2.75.25a.3.3 0 00-.27-.18H.83A.8.8 0 000 .88zm4.5 12.45A1.53 1.53 0 106 14.86a1.52 1.52 0 00-1.47-1.53z" fill="currentColor"/></g></g></svg>
