<svg width="95" height="20" viewBox="0 0 95 20" xmlns="http://www.w3.org/2000/svg"><g fill="#FFF" fill-rule="nonzero"><path d="M38.761 4.784a4.032 4.032 0 012.42 2.318c.24.591.353 1.239.342 1.875v6.318h-2.796V9.477c0-.784-.193-1.386-.568-1.807-.375-.42-.954-.636-1.739-.636a2.26 2.26 0 00-1.772.796c-.478.534-.705 1.238-.705 2.125v5.33h-2.807V9.476c0-.784-.193-1.386-.568-1.807-.375-.42-.954-.636-1.738-.636a2.26 2.26 0 00-1.773.796c-.477.534-.705 1.238-.705 2.125v5.33h-2.795V4.76h2.795v.796a3.69 3.69 0 011.239-.762 4.75 4.75 0 011.773-.318 6.1 6.1 0 012.216.375c.625.25 1.17.67 1.556 1.216.41-.488.91-.875 1.489-1.136.636-.307 1.398-.466 2.284-.466.625 0 1.261.114 1.852.318zM50.852 4.898c.682.261 1.296.659 1.818 1.159.512.5.92 1.102 1.194 1.761.295.705.443 1.455.431 2.216a5.413 5.413 0 01-1.625 3.955c-.522.5-1.136.897-1.818 1.159a6.393 6.393 0 01-4.545 0 5.458 5.458 0 01-1.818-1.16c-.512-.5-.92-1.09-1.194-1.75a5.45 5.45 0 01-.431-2.204 5.503 5.503 0 01.431-2.216 5.314 5.314 0 011.194-1.761 5.458 5.458 0 011.818-1.16 6.393 6.393 0 014.545 0zM47.42 7.273c-.34.147-.659.352-.931.613-.273.273-.478.591-.625.944a3.442 3.442 0 00-.228 1.215c0 .41.069.819.228 1.205.136.352.352.67.625.932a2.999 2.999 0 004.17 0c.273-.262.477-.58.625-.932a3.38 3.38 0 00.227-1.205c0-.42-.068-.83-.227-1.215a2.737 2.737 0 00-.625-.944 3.04 3.04 0 00-3.239-.613zM58.92 15.307L54.057 4.773h3.08l3.147 6.784 3.148-6.796h2.977l-4.864 10.534zM66.648 7.966c.238-.648.59-1.25 1.057-1.773a5.174 5.174 0 011.693-1.238 5.394 5.394 0 012.272-.466c.58 0 1.17.09 1.716.284.512.17.978.443 1.364.818v-.818h2.795v10.534H74.75v-.796a3.401 3.401 0 01-1.364.807 5.557 5.557 0 01-3.988-.193 5.068 5.068 0 01-1.693-1.227 5.356 5.356 0 01-1.057-1.762 6.116 6.116 0 010-4.17zm2.636 3.216c.136.352.33.67.58.954.25.273.545.5.886.648.364.16.75.239 1.136.239.375 0 .739-.068 1.091-.193.353-.125.67-.307.955-.557.295-.25.523-.568.682-.92.181-.41.261-.864.25-1.308a3.189 3.189 0 00-.25-1.306 2.904 2.904 0 00-.682-.932 2.805 2.805 0 00-.955-.568 3.23 3.23 0 00-1.08-.194c-.397 0-.783.08-1.136.25a2.87 2.87 0 00-.897.66c-.773.886-1 2.136-.58 3.227zM83.42 15.307L78.557 4.773h3.08l3.147 6.784 3.148-6.796h2.977l-4.864 10.534zM94.943.011v3.046h-3.057V.01h3.057zm-.136 15.296H92.01V4.76h2.796v10.546z"/><circle cx="9.114" cy="4.523" r="3.318"/><circle cx="9.114" cy="15.977" r="3.318"/><circle cx="14.841" cy="10.25" r="3.318"/><circle cx="3.386" cy="10.25" r="3.318"/></g></svg>